<mxfile host="app.diagrams.net" modified="2023-11-01T16:13:33.793Z" agent="Mozilla/5.0 (Windows NT 10.0; Win64; x64; rv:109.0) Gecko/20100101 Firefox/119.0" etag="q69pgVv6AJtIE16k2Vig" version="22.0.8" type="github">
  <diagram id="C5RBs43oDa-KdzZeNtuy" name="Page-1">
    <mxGraphModel dx="1050" dy="538" grid="0" gridSize="10" guides="1" tooltips="1" connect="1" arrows="1" fold="1" page="0" pageScale="1" pageWidth="583" pageHeight="827" background="#000000" math="0" shadow="0">
      <root>
        <mxCell id="WIyWlLk6GJQsqaUBKTNV-0" />
        <mxCell id="WIyWlLk6GJQsqaUBKTNV-1" parent="WIyWlLk6GJQsqaUBKTNV-0" />
        <mxCell id="9jaHIZTe0poCXiCzP0yL-1" value="Employer" style="swimlane;fontStyle=0;childLayout=stackLayout;horizontal=1;startSize=30;horizontalStack=0;resizeParent=1;resizeParentMax=0;resizeLast=0;collapsible=1;marginBottom=0;whiteSpace=wrap;html=1;labelBackgroundColor=none;fillColor=#dae8fc;strokeColor=#7399BF;" parent="WIyWlLk6GJQsqaUBKTNV-1" vertex="1">
          <mxGeometry x="239" y="38" width="160" height="210" as="geometry" />
        </mxCell>
        <mxCell id="9jaHIZTe0poCXiCzP0yL-29" value="Id Employer" style="text;strokeColor=#d6b656;fillColor=#66B2FF;align=left;verticalAlign=middle;spacingLeft=4;spacingRight=4;overflow=hidden;points=[[0,0.5],[1,0.5]];portConstraint=eastwest;rotatable=0;whiteSpace=wrap;html=1;labelBackgroundColor=none;fontColor=#000000;" parent="9jaHIZTe0poCXiCzP0yL-1" vertex="1">
          <mxGeometry y="30" width="160" height="30" as="geometry" />
        </mxCell>
        <mxCell id="9jaHIZTe0poCXiCzP0yL-2" value="FirstName" style="text;strokeColor=none;fillColor=#FFFFFF;align=left;verticalAlign=middle;spacingLeft=4;spacingRight=4;overflow=hidden;points=[[0,0.5],[1,0.5]];portConstraint=eastwest;rotatable=0;whiteSpace=wrap;html=1;labelBackgroundColor=none;fontColor=#393C56;" parent="9jaHIZTe0poCXiCzP0yL-1" vertex="1">
          <mxGeometry y="60" width="160" height="30" as="geometry" />
        </mxCell>
        <mxCell id="eaEuzPh7oa3zy-xoQtcz-13" value="LastName" style="text;strokeColor=none;fillColor=#FFFFFF;align=left;verticalAlign=middle;spacingLeft=4;spacingRight=4;overflow=hidden;points=[[0,0.5],[1,0.5]];portConstraint=eastwest;rotatable=0;whiteSpace=wrap;html=1;labelBackgroundColor=none;fontColor=#393C56;" vertex="1" parent="9jaHIZTe0poCXiCzP0yL-1">
          <mxGeometry y="90" width="160" height="30" as="geometry" />
        </mxCell>
        <mxCell id="9jaHIZTe0poCXiCzP0yL-3" value="PhoneNumber" style="text;strokeColor=none;fillColor=#FFFFFF;align=left;verticalAlign=middle;spacingLeft=4;spacingRight=4;overflow=hidden;points=[[0,0.5],[1,0.5]];portConstraint=eastwest;rotatable=0;whiteSpace=wrap;html=1;labelBackgroundColor=none;fontColor=#393C56;" parent="9jaHIZTe0poCXiCzP0yL-1" vertex="1">
          <mxGeometry y="120" width="160" height="30" as="geometry" />
        </mxCell>
        <mxCell id="eaEuzPh7oa3zy-xoQtcz-22" value="Salary" style="text;strokeColor=none;fillColor=#FFFFFF;align=left;verticalAlign=middle;spacingLeft=4;spacingRight=4;overflow=hidden;points=[[0,0.5],[1,0.5]];portConstraint=eastwest;rotatable=0;whiteSpace=wrap;html=1;labelBackgroundColor=none;fontColor=#393C56;" vertex="1" parent="9jaHIZTe0poCXiCzP0yL-1">
          <mxGeometry y="150" width="160" height="30" as="geometry" />
        </mxCell>
        <mxCell id="9jaHIZTe0poCXiCzP0yL-4" value="Id position" style="text;strokeColor=none;fillColor=#FFFFFF;align=left;verticalAlign=middle;spacingLeft=4;spacingRight=4;overflow=hidden;points=[[0,0.5],[1,0.5]];portConstraint=eastwest;rotatable=0;whiteSpace=wrap;html=1;labelBackgroundColor=none;fontColor=#393C56;" parent="9jaHIZTe0poCXiCzP0yL-1" vertex="1">
          <mxGeometry y="180" width="160" height="30" as="geometry" />
        </mxCell>
        <object label="Repair order list" id="9jaHIZTe0poCXiCzP0yL-5">
          <mxCell style="swimlane;fontStyle=0;childLayout=stackLayout;horizontal=1;startSize=30;horizontalStack=0;resizeParent=1;resizeParentMax=0;resizeLast=0;collapsible=1;marginBottom=0;whiteSpace=wrap;html=1;labelBackgroundColor=none;fillColor=#dae8fc;strokeColor=#6c8ebf;" parent="WIyWlLk6GJQsqaUBKTNV-1" vertex="1">
            <mxGeometry x="493" y="91" width="160" height="390" as="geometry">
              <mxRectangle x="360" y="40" width="90" height="30" as="alternateBounds" />
            </mxGeometry>
          </mxCell>
        </object>
        <mxCell id="9jaHIZTe0poCXiCzP0yL-6" value="Id Order" style="text;strokeColor=#2D7600;fillColor=#66B2FF;align=left;verticalAlign=middle;spacingLeft=4;spacingRight=4;overflow=hidden;points=[[0,0.5],[1,0.5]];portConstraint=eastwest;rotatable=0;whiteSpace=wrap;html=1;labelBackgroundColor=none;fontColor=#000000;" parent="9jaHIZTe0poCXiCzP0yL-5" vertex="1">
          <mxGeometry y="30" width="160" height="30" as="geometry" />
        </mxCell>
        <mxCell id="9jaHIZTe0poCXiCzP0yL-7" value="DateStart" style="text;strokeColor=none;fillColor=#ECFFBF;align=left;verticalAlign=middle;spacingLeft=4;spacingRight=4;overflow=hidden;points=[[0,0.5],[1,0.5]];portConstraint=eastwest;rotatable=0;whiteSpace=wrap;html=1;labelBackgroundColor=none;fontColor=#393C56;" parent="9jaHIZTe0poCXiCzP0yL-5" vertex="1">
          <mxGeometry y="60" width="160" height="30" as="geometry" />
        </mxCell>
        <mxCell id="9jaHIZTe0poCXiCzP0yL-31" value="Id employer" style="text;strokeColor=none;fillColor=#ECFFBF;align=left;verticalAlign=middle;spacingLeft=4;spacingRight=4;overflow=hidden;points=[[0,0.5],[1,0.5]];portConstraint=eastwest;rotatable=0;whiteSpace=wrap;html=1;labelBackgroundColor=none;fontColor=#393C56;" parent="9jaHIZTe0poCXiCzP0yL-5" vertex="1">
          <mxGeometry y="90" width="160" height="30" as="geometry" />
        </mxCell>
        <mxCell id="9jaHIZTe0poCXiCzP0yL-35" value="Id customer" style="text;strokeColor=none;fillColor=#ECFFBF;align=left;verticalAlign=middle;spacingLeft=4;spacingRight=4;overflow=hidden;points=[[0,0.5],[1,0.5]];portConstraint=eastwest;rotatable=0;whiteSpace=wrap;html=1;labelBackgroundColor=none;fontColor=#393C56;" parent="9jaHIZTe0poCXiCzP0yL-5" vertex="1">
          <mxGeometry y="120" width="160" height="30" as="geometry" />
        </mxCell>
        <mxCell id="9jaHIZTe0poCXiCzP0yL-33" value="Id device" style="text;strokeColor=none;fillColor=#ECFFBF;align=left;verticalAlign=middle;spacingLeft=4;spacingRight=4;overflow=hidden;points=[[0,0.5],[1,0.5]];portConstraint=eastwest;rotatable=0;whiteSpace=wrap;html=1;labelBackgroundColor=none;fontColor=#393C56;" parent="9jaHIZTe0poCXiCzP0yL-5" vertex="1">
          <mxGeometry y="150" width="160" height="30" as="geometry" />
        </mxCell>
        <mxCell id="eaEuzPh7oa3zy-xoQtcz-33" value="Id category" style="text;strokeColor=none;fillColor=#ECFFBF;align=left;verticalAlign=middle;spacingLeft=4;spacingRight=4;overflow=hidden;points=[[0,0.5],[1,0.5]];portConstraint=eastwest;rotatable=0;whiteSpace=wrap;html=1;labelBackgroundColor=none;fontColor=#393C56;" vertex="1" parent="9jaHIZTe0poCXiCzP0yL-5">
          <mxGeometry y="180" width="160" height="30" as="geometry" />
        </mxCell>
        <mxCell id="u0Bwr9gFiZDDjJYbpxee-0" value="Discount" style="text;strokeColor=none;fillColor=#ECFFBF;align=left;verticalAlign=middle;spacingLeft=4;spacingRight=4;overflow=hidden;points=[[0,0.5],[1,0.5]];portConstraint=eastwest;rotatable=0;whiteSpace=wrap;html=1;labelBackgroundColor=none;fontColor=#393C56;" parent="9jaHIZTe0poCXiCzP0yL-5" vertex="1">
          <mxGeometry y="210" width="160" height="30" as="geometry" />
        </mxCell>
        <mxCell id="9jaHIZTe0poCXiCzP0yL-44" value="TotalCost" style="text;strokeColor=none;fillColor=#ECFFBF;align=left;verticalAlign=middle;spacingLeft=4;spacingRight=4;overflow=hidden;points=[[0,0.5],[1,0.5]];portConstraint=eastwest;rotatable=0;whiteSpace=wrap;html=1;labelBackgroundColor=none;fontColor=#393C56;" parent="9jaHIZTe0poCXiCzP0yL-5" vertex="1">
          <mxGeometry y="240" width="160" height="30" as="geometry" />
        </mxCell>
        <mxCell id="eaEuzPh7oa3zy-xoQtcz-32" value="PlainDateEnd" style="text;strokeColor=none;fillColor=#ECFFBF;align=left;verticalAlign=middle;spacingLeft=4;spacingRight=4;overflow=hidden;points=[[0,0.5],[1,0.5]];portConstraint=eastwest;rotatable=0;whiteSpace=wrap;html=1;labelBackgroundColor=none;fontColor=#393C56;" vertex="1" parent="9jaHIZTe0poCXiCzP0yL-5">
          <mxGeometry y="270" width="160" height="30" as="geometry" />
        </mxCell>
        <mxCell id="9jaHIZTe0poCXiCzP0yL-8" value="DateEnd" style="text;strokeColor=none;fillColor=#ECFFBF;align=left;verticalAlign=middle;spacingLeft=4;spacingRight=4;overflow=hidden;points=[[0,0.5],[1,0.5]];portConstraint=eastwest;rotatable=0;whiteSpace=wrap;html=1;labelBackgroundColor=none;fontColor=#393C56;" parent="9jaHIZTe0poCXiCzP0yL-5" vertex="1">
          <mxGeometry y="300" width="160" height="30" as="geometry" />
        </mxCell>
        <mxCell id="eaEuzPh7oa3zy-xoQtcz-23" value="Status" style="text;strokeColor=none;fillColor=#ECFFBF;align=left;verticalAlign=middle;spacingLeft=4;spacingRight=4;overflow=hidden;points=[[0,0.5],[1,0.5]];portConstraint=eastwest;rotatable=0;whiteSpace=wrap;html=1;labelBackgroundColor=none;fontColor=#393C56;" vertex="1" parent="9jaHIZTe0poCXiCzP0yL-5">
          <mxGeometry y="330" width="160" height="30" as="geometry" />
        </mxCell>
        <mxCell id="9jaHIZTe0poCXiCzP0yL-41" value="Comment" style="text;strokeColor=none;fillColor=#ECFFBF;align=left;verticalAlign=middle;spacingLeft=4;spacingRight=4;overflow=hidden;points=[[0,0.5],[1,0.5]];portConstraint=eastwest;rotatable=0;whiteSpace=wrap;html=1;labelBackgroundColor=none;fontColor=#393C56;" parent="9jaHIZTe0poCXiCzP0yL-5" vertex="1">
          <mxGeometry y="360" width="160" height="30" as="geometry" />
        </mxCell>
        <mxCell id="9jaHIZTe0poCXiCzP0yL-11" value="Device" style="swimlane;fontStyle=0;childLayout=stackLayout;horizontal=1;startSize=30;horizontalStack=0;resizeParent=1;resizeParentMax=0;resizeLast=0;collapsible=1;marginBottom=0;whiteSpace=wrap;html=1;labelBackgroundColor=none;fillColor=#dae8fc;strokeColor=#6c8ebf;" parent="WIyWlLk6GJQsqaUBKTNV-1" vertex="1">
          <mxGeometry x="239" y="308" width="160" height="180" as="geometry" />
        </mxCell>
        <mxCell id="eaEuzPh7oa3zy-xoQtcz-0" style="edgeStyle=orthogonalEdgeStyle;rounded=0;orthogonalLoop=1;jettySize=auto;html=1;exitX=0;exitY=0.5;exitDx=0;exitDy=0;" edge="1" parent="9jaHIZTe0poCXiCzP0yL-11" source="9jaHIZTe0poCXiCzP0yL-12">
          <mxGeometry relative="1" as="geometry">
            <mxPoint x="160" y="45" as="targetPoint" />
          </mxGeometry>
        </mxCell>
        <mxCell id="eaEuzPh7oa3zy-xoQtcz-3" style="edgeStyle=orthogonalEdgeStyle;rounded=0;orthogonalLoop=1;jettySize=auto;html=1;" edge="1" parent="9jaHIZTe0poCXiCzP0yL-11" source="9jaHIZTe0poCXiCzP0yL-12">
          <mxGeometry relative="1" as="geometry">
            <mxPoint x="211" y="30" as="targetPoint" />
          </mxGeometry>
        </mxCell>
        <mxCell id="9jaHIZTe0poCXiCzP0yL-12" value="Id Device" style="text;strokeColor=#2D7600;fillColor=#66B2FF;align=left;verticalAlign=middle;spacingLeft=4;spacingRight=4;overflow=hidden;points=[[0,0.5],[1,0.5]];portConstraint=eastwest;rotatable=0;whiteSpace=wrap;html=1;labelBackgroundColor=none;fontColor=#000000;" parent="9jaHIZTe0poCXiCzP0yL-11" vertex="1">
          <mxGeometry y="30" width="160" height="30" as="geometry" />
        </mxCell>
        <mxCell id="9jaHIZTe0poCXiCzP0yL-13" value="Company" style="text;strokeColor=none;fillColor=#FFFFFF;align=left;verticalAlign=middle;spacingLeft=4;spacingRight=4;overflow=hidden;points=[[0,0.5],[1,0.5]];portConstraint=eastwest;rotatable=0;whiteSpace=wrap;html=1;labelBackgroundColor=none;fontColor=#393C56;" parent="9jaHIZTe0poCXiCzP0yL-11" vertex="1">
          <mxGeometry y="60" width="160" height="30" as="geometry" />
        </mxCell>
        <mxCell id="9jaHIZTe0poCXiCzP0yL-14" value="Model" style="text;strokeColor=none;fillColor=#FFFFFF;align=left;verticalAlign=middle;spacingLeft=4;spacingRight=4;overflow=hidden;points=[[0,0.5],[1,0.5]];portConstraint=eastwest;rotatable=0;whiteSpace=wrap;html=1;labelBackgroundColor=none;fontColor=#393C56;" parent="9jaHIZTe0poCXiCzP0yL-11" vertex="1">
          <mxGeometry y="90" width="160" height="30" as="geometry" />
        </mxCell>
        <mxCell id="9jaHIZTe0poCXiCzP0yL-15" value="Type" style="text;strokeColor=none;fillColor=#FFFFFF;align=left;verticalAlign=middle;spacingLeft=4;spacingRight=4;overflow=hidden;points=[[0,0.5],[1,0.5]];portConstraint=eastwest;rotatable=0;whiteSpace=wrap;html=1;labelBackgroundColor=none;fontColor=#393C56;" parent="9jaHIZTe0poCXiCzP0yL-11" vertex="1">
          <mxGeometry y="120" width="160" height="30" as="geometry" />
        </mxCell>
        <mxCell id="eaEuzPh7oa3zy-xoQtcz-11" value="ManufactureYear" style="text;strokeColor=none;fillColor=#FFFFFF;align=left;verticalAlign=middle;spacingLeft=4;spacingRight=4;overflow=hidden;points=[[0,0.5],[1,0.5]];portConstraint=eastwest;rotatable=0;whiteSpace=wrap;html=1;labelBackgroundColor=none;fontColor=#393C56;" vertex="1" parent="9jaHIZTe0poCXiCzP0yL-11">
          <mxGeometry y="150" width="160" height="30" as="geometry" />
        </mxCell>
        <mxCell id="9jaHIZTe0poCXiCzP0yL-17" value="Customer" style="swimlane;fontStyle=0;childLayout=stackLayout;horizontal=1;startSize=30;horizontalStack=0;resizeParent=1;resizeParentMax=0;resizeLast=0;collapsible=1;marginBottom=0;whiteSpace=wrap;html=1;labelBackgroundColor=none;fillColor=#dae8fc;strokeColor=#6c8ebf;" parent="WIyWlLk6GJQsqaUBKTNV-1" vertex="1">
          <mxGeometry x="729" y="38" width="160" height="240" as="geometry" />
        </mxCell>
        <mxCell id="9jaHIZTe0poCXiCzP0yL-30" value="Id Customer" style="text;strokeColor=#2D7600;fillColor=#66B2FF;align=left;verticalAlign=middle;spacingLeft=4;spacingRight=4;overflow=hidden;points=[[0,0.5],[1,0.5]];portConstraint=eastwest;rotatable=0;whiteSpace=wrap;html=1;labelBackgroundColor=none;fontColor=#000000;" parent="9jaHIZTe0poCXiCzP0yL-17" vertex="1">
          <mxGeometry y="30" width="160" height="30" as="geometry" />
        </mxCell>
        <mxCell id="9jaHIZTe0poCXiCzP0yL-20" value="DocNumber" style="text;strokeColor=none;fillColor=#FFFFFF;align=left;verticalAlign=middle;spacingLeft=4;spacingRight=4;overflow=hidden;points=[[0,0.5],[1,0.5]];portConstraint=eastwest;rotatable=0;whiteSpace=wrap;html=1;labelBackgroundColor=none;fontColor=#393C56;" parent="9jaHIZTe0poCXiCzP0yL-17" vertex="1">
          <mxGeometry y="60" width="160" height="30" as="geometry" />
        </mxCell>
        <mxCell id="9jaHIZTe0poCXiCzP0yL-19" value="FirstName" style="text;strokeColor=none;fillColor=#FFFFFF;align=left;verticalAlign=middle;spacingLeft=4;spacingRight=4;overflow=hidden;points=[[0,0.5],[1,0.5]];portConstraint=eastwest;rotatable=0;whiteSpace=wrap;html=1;labelBackgroundColor=none;fontColor=#393C56;" parent="9jaHIZTe0poCXiCzP0yL-17" vertex="1">
          <mxGeometry y="90" width="160" height="30" as="geometry" />
        </mxCell>
        <mxCell id="eaEuzPh7oa3zy-xoQtcz-7" value="LastName" style="text;strokeColor=none;fillColor=#FFFFFF;align=left;verticalAlign=middle;spacingLeft=4;spacingRight=4;overflow=hidden;points=[[0,0.5],[1,0.5]];portConstraint=eastwest;rotatable=0;whiteSpace=wrap;html=1;labelBackgroundColor=none;fontColor=#393C56;" vertex="1" parent="9jaHIZTe0poCXiCzP0yL-17">
          <mxGeometry y="120" width="160" height="30" as="geometry" />
        </mxCell>
        <mxCell id="eaEuzPh7oa3zy-xoQtcz-8" value="Patronymic" style="text;strokeColor=none;fillColor=#FFFFFF;align=left;verticalAlign=middle;spacingLeft=4;spacingRight=4;overflow=hidden;points=[[0,0.5],[1,0.5]];portConstraint=eastwest;rotatable=0;whiteSpace=wrap;html=1;labelBackgroundColor=none;fontColor=#393C56;" vertex="1" parent="9jaHIZTe0poCXiCzP0yL-17">
          <mxGeometry y="150" width="160" height="30" as="geometry" />
        </mxCell>
        <mxCell id="9jaHIZTe0poCXiCzP0yL-21" value="PhoneNumber" style="text;strokeColor=none;fillColor=#FFFFFF;align=left;verticalAlign=middle;spacingLeft=4;spacingRight=4;overflow=hidden;points=[[0,0.5],[1,0.5]];portConstraint=eastwest;rotatable=0;whiteSpace=wrap;html=1;labelBackgroundColor=none;fontColor=#393C56;" parent="9jaHIZTe0poCXiCzP0yL-17" vertex="1">
          <mxGeometry y="180" width="160" height="30" as="geometry" />
        </mxCell>
        <mxCell id="eaEuzPh7oa3zy-xoQtcz-10" value="Email" style="text;strokeColor=none;fillColor=#FFFFFF;align=left;verticalAlign=middle;spacingLeft=4;spacingRight=4;overflow=hidden;points=[[0,0.5],[1,0.5]];portConstraint=eastwest;rotatable=0;whiteSpace=wrap;html=1;labelBackgroundColor=none;fontColor=#393C56;" vertex="1" parent="9jaHIZTe0poCXiCzP0yL-17">
          <mxGeometry y="210" width="160" height="30" as="geometry" />
        </mxCell>
        <mxCell id="9jaHIZTe0poCXiCzP0yL-37" style="edgeStyle=orthogonalEdgeStyle;rounded=0;orthogonalLoop=1;jettySize=auto;html=1;entryX=1;entryY=0.5;entryDx=0;entryDy=0;labelBackgroundColor=none;strokeColor=#E07A5F;fontColor=default;" parent="WIyWlLk6GJQsqaUBKTNV-1" source="9jaHIZTe0poCXiCzP0yL-30" target="9jaHIZTe0poCXiCzP0yL-35" edge="1">
          <mxGeometry relative="1" as="geometry" />
        </mxCell>
        <mxCell id="9jaHIZTe0poCXiCzP0yL-38" style="edgeStyle=orthogonalEdgeStyle;rounded=0;orthogonalLoop=1;jettySize=auto;html=1;entryX=0;entryY=0.5;entryDx=0;entryDy=0;labelBackgroundColor=none;strokeColor=#E07A5F;fontColor=default;" parent="WIyWlLk6GJQsqaUBKTNV-1" source="9jaHIZTe0poCXiCzP0yL-2" target="9jaHIZTe0poCXiCzP0yL-31" edge="1">
          <mxGeometry relative="1" as="geometry" />
        </mxCell>
        <mxCell id="eaEuzPh7oa3zy-xoQtcz-1" style="edgeStyle=orthogonalEdgeStyle;rounded=0;orthogonalLoop=1;jettySize=auto;html=1;entryX=0;entryY=0.5;entryDx=0;entryDy=0;" edge="1" parent="WIyWlLk6GJQsqaUBKTNV-1" source="9jaHIZTe0poCXiCzP0yL-12" target="9jaHIZTe0poCXiCzP0yL-33">
          <mxGeometry relative="1" as="geometry" />
        </mxCell>
        <mxCell id="eaEuzPh7oa3zy-xoQtcz-2" style="edgeStyle=orthogonalEdgeStyle;rounded=0;orthogonalLoop=1;jettySize=auto;html=1;exitX=1;exitY=0.5;exitDx=0;exitDy=0;entryX=0;entryY=0.5;entryDx=0;entryDy=0;" edge="1" parent="WIyWlLk6GJQsqaUBKTNV-1" source="9jaHIZTe0poCXiCzP0yL-12" target="9jaHIZTe0poCXiCzP0yL-33">
          <mxGeometry relative="1" as="geometry">
            <mxPoint x="379" y="262" as="targetPoint" />
          </mxGeometry>
        </mxCell>
        <mxCell id="eaEuzPh7oa3zy-xoQtcz-4" style="edgeStyle=orthogonalEdgeStyle;rounded=0;orthogonalLoop=1;jettySize=auto;html=1;" edge="1" parent="WIyWlLk6GJQsqaUBKTNV-1" source="9jaHIZTe0poCXiCzP0yL-12" target="9jaHIZTe0poCXiCzP0yL-33">
          <mxGeometry relative="1" as="geometry" />
        </mxCell>
        <mxCell id="eaEuzPh7oa3zy-xoQtcz-5" value="" style="edgeStyle=orthogonalEdgeStyle;rounded=0;orthogonalLoop=1;jettySize=auto;html=1;" edge="1" parent="WIyWlLk6GJQsqaUBKTNV-1" source="9jaHIZTe0poCXiCzP0yL-12" target="9jaHIZTe0poCXiCzP0yL-44">
          <mxGeometry relative="1" as="geometry" />
        </mxCell>
        <mxCell id="eaEuzPh7oa3zy-xoQtcz-6" style="edgeStyle=orthogonalEdgeStyle;rounded=0;orthogonalLoop=1;jettySize=auto;html=1;entryX=0;entryY=0.5;entryDx=0;entryDy=0;fillColor=#ffe6cc;strokeColor=#d79b00;" edge="1" parent="WIyWlLk6GJQsqaUBKTNV-1" source="9jaHIZTe0poCXiCzP0yL-12" target="9jaHIZTe0poCXiCzP0yL-33">
          <mxGeometry relative="1" as="geometry">
            <mxPoint x="354" y="295" as="targetPoint" />
          </mxGeometry>
        </mxCell>
        <mxCell id="eaEuzPh7oa3zy-xoQtcz-15" value="Position" style="swimlane;fontStyle=0;childLayout=stackLayout;horizontal=1;startSize=30;horizontalStack=0;resizeParent=1;resizeParentMax=0;resizeLast=0;collapsible=1;marginBottom=0;whiteSpace=wrap;html=1;labelBackgroundColor=none;fillColor=#dae8fc;strokeColor=#7399BF;" vertex="1" parent="WIyWlLk6GJQsqaUBKTNV-1">
          <mxGeometry x="13" y="70" width="160" height="90" as="geometry" />
        </mxCell>
        <mxCell id="eaEuzPh7oa3zy-xoQtcz-16" value="Id Position" style="text;strokeColor=#d6b656;fillColor=#66B2FF;align=left;verticalAlign=middle;spacingLeft=4;spacingRight=4;overflow=hidden;points=[[0,0.5],[1,0.5]];portConstraint=eastwest;rotatable=0;whiteSpace=wrap;html=1;labelBackgroundColor=none;fontColor=#000000;" vertex="1" parent="eaEuzPh7oa3zy-xoQtcz-15">
          <mxGeometry y="30" width="160" height="30" as="geometry" />
        </mxCell>
        <mxCell id="eaEuzPh7oa3zy-xoQtcz-17" value="EmployerPosition" style="text;strokeColor=none;fillColor=#FFFFFF;align=left;verticalAlign=middle;spacingLeft=4;spacingRight=4;overflow=hidden;points=[[0,0.5],[1,0.5]];portConstraint=eastwest;rotatable=0;whiteSpace=wrap;html=1;labelBackgroundColor=none;fontColor=#393C56;" vertex="1" parent="eaEuzPh7oa3zy-xoQtcz-15">
          <mxGeometry y="60" width="160" height="30" as="geometry" />
        </mxCell>
        <mxCell id="eaEuzPh7oa3zy-xoQtcz-21" style="edgeStyle=orthogonalEdgeStyle;rounded=0;orthogonalLoop=1;jettySize=auto;html=1;entryX=0;entryY=0.5;entryDx=0;entryDy=0;fillColor=#ffe6cc;strokeColor=#d79b00;" edge="1" parent="WIyWlLk6GJQsqaUBKTNV-1" source="eaEuzPh7oa3zy-xoQtcz-16" target="9jaHIZTe0poCXiCzP0yL-4">
          <mxGeometry relative="1" as="geometry" />
        </mxCell>
        <mxCell id="eaEuzPh7oa3zy-xoQtcz-24" value="Repair category" style="swimlane;fontStyle=0;childLayout=stackLayout;horizontal=1;startSize=30;horizontalStack=0;resizeParent=1;resizeParentMax=0;resizeLast=0;collapsible=1;marginBottom=0;whiteSpace=wrap;html=1;labelBackgroundColor=none;fillColor=#dae8fc;strokeColor=#6c8ebf;" vertex="1" parent="WIyWlLk6GJQsqaUBKTNV-1">
          <mxGeometry x="729" y="353" width="160" height="90" as="geometry" />
        </mxCell>
        <mxCell id="eaEuzPh7oa3zy-xoQtcz-25" style="edgeStyle=orthogonalEdgeStyle;rounded=0;orthogonalLoop=1;jettySize=auto;html=1;exitX=0;exitY=0.5;exitDx=0;exitDy=0;" edge="1" parent="eaEuzPh7oa3zy-xoQtcz-24" source="eaEuzPh7oa3zy-xoQtcz-27">
          <mxGeometry relative="1" as="geometry">
            <mxPoint x="160" y="45" as="targetPoint" />
          </mxGeometry>
        </mxCell>
        <mxCell id="eaEuzPh7oa3zy-xoQtcz-26" style="edgeStyle=orthogonalEdgeStyle;rounded=0;orthogonalLoop=1;jettySize=auto;html=1;" edge="1" parent="eaEuzPh7oa3zy-xoQtcz-24" source="eaEuzPh7oa3zy-xoQtcz-27">
          <mxGeometry relative="1" as="geometry">
            <mxPoint x="211" y="30" as="targetPoint" />
          </mxGeometry>
        </mxCell>
        <mxCell id="eaEuzPh7oa3zy-xoQtcz-27" value="Id Category" style="text;strokeColor=#2D7600;fillColor=#66B2FF;align=left;verticalAlign=middle;spacingLeft=4;spacingRight=4;overflow=hidden;points=[[0,0.5],[1,0.5]];portConstraint=eastwest;rotatable=0;whiteSpace=wrap;html=1;labelBackgroundColor=none;fontColor=#000000;" vertex="1" parent="eaEuzPh7oa3zy-xoQtcz-24">
          <mxGeometry y="30" width="160" height="30" as="geometry" />
        </mxCell>
        <mxCell id="eaEuzPh7oa3zy-xoQtcz-28" value="Category" style="text;strokeColor=none;fillColor=#FFFFFF;align=left;verticalAlign=middle;spacingLeft=4;spacingRight=4;overflow=hidden;points=[[0,0.5],[1,0.5]];portConstraint=eastwest;rotatable=0;whiteSpace=wrap;html=1;labelBackgroundColor=none;fontColor=#393C56;" vertex="1" parent="eaEuzPh7oa3zy-xoQtcz-24">
          <mxGeometry y="60" width="160" height="30" as="geometry" />
        </mxCell>
        <mxCell id="eaEuzPh7oa3zy-xoQtcz-34" style="edgeStyle=orthogonalEdgeStyle;rounded=0;orthogonalLoop=1;jettySize=auto;html=1;entryX=1;entryY=0.5;entryDx=0;entryDy=0;fillColor=#ffe6cc;strokeColor=#d79b00;" edge="1" parent="WIyWlLk6GJQsqaUBKTNV-1" source="eaEuzPh7oa3zy-xoQtcz-27" target="eaEuzPh7oa3zy-xoQtcz-33">
          <mxGeometry relative="1" as="geometry" />
        </mxCell>
      </root>
    </mxGraphModel>
  </diagram>
</mxfile>
